<svg xmlns="http://www.w3.org/2000/svg" fill="currentColor" height="16" viewBox="10 0 204 20" width="180">
	<g clip-path="url(#clip0_3519_24391)">
		<path d="M23.9898 19.6554C27.2355 19.6554 33.8538 19.6554 33.8538 19.6554C33.8538 19.6554 34.5428 18.223 34.6698 17.9872C33.7269 17.9872 25.0777 17.9872 24.8964 17.9872V2.53847C24.8964 1.08788 23.9717 0.688965 22.9563 0.688965C22.4486 0.688965 21.1249 0.688965 20.6172 0.688965C21.1793 1.06974 21.5963 1.50492 21.7595 2.24835C21.8321 2.52033 21.8502 2.91925 21.8502 3.30003V17.5521C21.8502 18.7488 22.3035 19.6554 23.9717 19.6554H23.9898Z"/>
		<path d="M120.852 2.15769C119.836 0.888421 119.546 0.688965 118.204 0.688965H115.285C116.083 1.08788 116.772 1.86757 116.99 3.04617C117.044 3.31816 117.044 3.7352 117.044 4.02532V19.6554H118.803V4.47863C119.147 4.9682 128.558 16.7361 129.537 17.9328C130.553 19.2021 131.332 19.6373 132.384 19.6373H133.254V0.688965H131.495V15.5575C131.387 15.4306 121.287 2.71979 120.834 2.15769H120.852Z"/>
		<path d="M3.1913 9.46502C3.1913 6.32812 5.31278 1.95822 10.5349 1.95822C13.3092 1.95822 15.4488 2.97363 16.7724 4.0797C16.718 3.49947 16.6092 2.68351 16.5186 2.01261C15.1768 1.14226 12.9102 0.290039 10.4624 0.290039C3.64461 0.290039 0 5.04072 0 10.0453C0 15.7207 4.35177 19.9637 10.3898 19.9637C13.4542 19.9637 15.5032 18.9845 16.6636 18.3136C16.7724 17.824 16.8812 16.718 16.9538 16.2284C16.5186 16.6092 14.5603 18.2048 11.0789 18.2048C6.41886 18.2048 3.1913 14.5965 3.1913 9.46502Z"/>
		<path d="M41.9761 13.0734C42.6107 11.7497 44.8954 6.34626 45.113 5.83856C45.6751 7.14409 47.8872 12.3843 48.1774 13.0734H41.9942H41.9761ZM53.0006 16.718C52.3841 15.2674 47.6152 4.22478 45.8383 0.0180664C45.6207 0.543905 37.3705 19.0389 37.0078 19.6736H39.0205C39.5101 18.5312 40.9244 15.3037 41.1964 14.7234H48.8482C49.229 15.63 49.9362 17.2619 50.2626 18.0235C50.7521 19.2021 51.5137 19.6736 52.656 19.6736H55.249C54.4149 19.1115 53.5989 18.1504 53.0006 16.718Z"/>
		<path d="M188.395 19.6554C191.822 19.6554 198.784 19.6554 199.963 19.6554C201.305 19.6554 201.958 19.4378 202.483 18.6581C202.864 18.096 203.408 17.2438 203.608 16.9537C202.774 17.4433 201.486 17.951 199.764 17.951C199.528 17.951 199.274 17.951 199.002 17.951H190.969C191.35 17.4977 202.991 1.39613 203.553 0.688965H189.356C189.356 0.688965 188.503 2.01263 188.286 2.33901H198.893C198.512 2.91925 190.697 13.4542 187.506 17.8059C186.853 18.5312 187.198 19.6736 188.376 19.6736L188.395 19.6554Z"/>
		<path d="M170.734 0.688965C170.734 0.688965 169.954 1.90383 169.664 2.33901H176.155V19.6554H179.184V2.33901H184.75C184.75 2.33901 185.693 0.888421 185.82 0.688965H170.734Z"/>
		<path d="M74.5781 2.33901H81.0695V19.6554H84.0976V2.33901H89.7186C89.7186 2.33901 90.5527 1.05161 90.7885 0.688965H75.6479C75.6479 0.688965 74.8682 1.90383 74.5781 2.33901Z"/>
		<path d="M64.389 10.1178C64.2258 9.73701 60.0916 3.1187 59.4026 1.9945C58.7317 0.888421 57.807 0.688965 57.0817 0.688965H53.9629C55.0146 1.16041 55.7036 1.92197 56.3745 2.99178C56.7009 3.51761 61.7054 11.4052 62.1587 12.1124V19.6554H65.205V12.0942C65.7308 11.2601 72.059 1.28733 72.476 0.688965H70.4452C70.1732 1.06974 65.0055 9.24744 64.4071 10.1178H64.389Z"/>
		<path d="M164.533 13.4723C164.533 16.2103 162.756 18.1504 159.365 18.1504C156.265 18.1504 154.216 16.2828 154.216 13.4723V0.688965H152.874C151.695 0.688965 151.188 1.37799 151.188 2.5022V13.6717C151.188 18.9301 155.775 19.9999 158.912 19.9999C161.45 19.9999 166.328 19.0389 166.328 13.3091C166.328 12.6019 166.328 1.57745 166.328 0.688965H164.551C164.551 1.08788 164.551 11.9492 164.551 13.4723H164.533Z"/>
		<path d="M101.16 1.74063C105.222 1.23292 108.395 4.47862 108.993 9.24743C109.61 14.1976 107.144 17.951 103.245 18.4405C99.1291 18.9482 95.9922 15.6119 95.412 10.9337C94.8136 6.11053 97.1889 2.24833 101.16 1.74063ZM102.193 19.9637C107.742 19.9637 112.311 15.5575 112.311 10.1178C112.311 4.67807 107.76 0.290039 102.212 0.290039C96.6631 0.290039 92.0938 4.6962 92.0938 10.1359C92.0938 15.5756 96.6631 19.9818 102.212 19.9818L102.193 19.9637Z"/>
	</g>
	<defs>
		<clipPath id="clip0_3519_24391">
			<rect fill="white" height="20" width="203.608"/>
		</clipPath>
	</defs>
</svg>